<?xml version="1.0" standalone="no"?>
<!DOCTYPE svg PUBLIC "-//W3C//DTD SVG 20010904//EN"
 "http://www.w3.org/TR/2001/REC-SVG-20010904/DTD/svg10.dtd">
<svg version="1.0" xmlns="http://www.w3.org/2000/svg"
 width="1024.000000pt" height="672.000000pt" viewBox="0 0 1024.000000 672.000000"
 preserveAspectRatio="xMidYMid meet">

<g transform="translate(0.000000,672.000000) scale(0.100000,-0.100000)"
fill="#000000" stroke="none">
<path d="M170 3969 l0 -2639 1214 0 1214 0 -53 133 c-29 72 -210 521 -403 997
l-349 866 -397 1519 c-218 836 -400 1526 -404 1534 -5 9 -156 53 -378 111
-203 54 -386 102 -406 108 l-38 10 0 -2639z m434 2496 c197 -52 361 -96 363
-98 2 -2 182 -690 402 -1528 l398 -1524 388 -960 c214 -528 390 -970 393 -983
l4 -22 -1178 2 -1179 3 -3 2609 -2 2608 27 -7 c16 -3 190 -49 387 -100z"/>
<path d="M1780 1280 c0 -5 9 -12 20 -15 28 -9 27 -51 -2 -58 -12 -4 -19 -9
-16 -12 9 -10 118 27 118 39 0 6 -27 21 -60 33 -33 12 -60 18 -60 13z m90 -40
c9 -6 10 -10 3 -10 -6 0 -18 -3 -27 -6 -11 -4 -16 -1 -16 10 0 18 17 21 40 6z"/>
<path d="M180 1270 c0 -5 11 -10 24 -10 19 0 25 -6 28 -26 7 -63 68 -51 68 12
l0 34 -60 0 c-33 0 -60 -4 -60 -10z m108 -32 c-2 -15 -10 -23 -23 -23 -13 0
-21 8 -23 23 -3 18 1 22 23 22 22 0 26 -4 23 -22z"/>
<path d="M996 1264 c-21 -20 -20 -48 0 -69 22 -22 32 -10 11 13 -10 10 -17 21
-17 25 0 13 32 37 50 37 19 0 50 -25 50 -40 0 -5 -7 -16 -16 -24 -13 -14 -13
-16 -1 -16 15 0 27 20 27 45 0 23 -30 45 -60 45 -16 0 -36 -7 -44 -16z"/>
<path d="M2580 1270 c0 -5 12 -10 26 -10 22 0 25 -4 22 -27 -2 -20 -9 -29 -25
-31 -13 -2 -23 -7 -23 -12 0 -5 7 -7 15 -4 8 4 34 7 57 8 l43 1 3 43 3 42 -60
0 c-34 0 -61 -4 -61 -10z m108 -37 c-2 -20 -9 -28 -23 -28 -14 0 -21 8 -23 28
-3 23 0 27 23 27 23 0 26 -4 23 -27z"/>
<path d="M185 1150 c-13 -41 47 -69 75 -35 21 25 3 55 -35 55 -25 0 -35 -5
-40 -20z m70 -9 c0 -8 -8 -19 -17 -25 -14 -8 -21 -7 -34 6 -9 9 -13 21 -9 28
10 15 60 8 60 -9z"/>
<path d="M1807 1160 c18 -4 39 -13 47 -19 12 -10 15 -9 13 8 -1 18 -8 21 -47
20 -43 -1 -44 -1 -13 -9z"/>
<path d="M989 1158 c-1 -2 -3 -22 -4 -45 -3 -37 0 -43 17 -43 24 0 58 -18 58
-30 0 -6 -18 -10 -40 -10 -22 0 -40 -5 -40 -11 0 -6 17 -9 43 -7 40 3 42 5 43
36 1 31 0 32 -40 33 l-41 2 34 6 c19 3 38 13 44 22 12 19 3 49 -14 49 -8 0 -8
-4 1 -15 6 -8 9 -19 5 -25 -11 -17 -23 -11 -27 12 -2 18 -34 39 -39 26z m31
-34 c0 -16 -16 -19 -25 -4 -8 13 4 32 16 25 5 -4 9 -13 9 -21z"/>
<path d="M2603 1153 c15 -2 37 -2 50 0 12 2 0 4 -28 4 -27 0 -38 -2 -22 -4z"/>
<path d="M2583 1108 c-3 -31 15 -48 48 -48 28 0 48 28 34 49 -3 5 5 12 17 14
13 2 -4 5 -37 6 -56 1 -61 -1 -62 -21z m65 0 c13 -13 -2 -38 -23 -38 -21 0
-36 25 -23 38 7 7 17 12 23 12 6 0 16 -5 23 -12z"/>
<path d="M1807 1110 c18 -4 39 -13 47 -19 12 -10 15 -9 13 8 -1 18 -8 21 -47
20 -43 -1 -44 -1 -13 -9z"/>
<path d="M226 1080 c-57 -7 -56 -25 1 -23 65 2 63 2 63 12 0 14 -21 17 -64 11z"/>
<path d="M1803 1063 c15 -2 37 -2 50 0 12 2 0 4 -28 4 -27 0 -38 -2 -22 -4z"/>
<path d="M185 1020 c-6 -20 12 -56 23 -45 3 2 -1 11 -7 19 -7 8 -10 20 -6 26
12 20 25 10 25 -21 0 -23 4 -30 16 -27 27 5 40 34 25 52 -20 24 -68 21 -76 -4z
m68 -4 c3 -8 -1 -20 -9 -26 -12 -10 -14 -8 -14 14 0 28 14 35 23 12z"/>
<path d="M2589 1038 c-1 -2 -3 -19 -4 -39 -2 -35 -2 -35 33 -30 19 3 39 13 45
22 12 19 3 49 -14 49 -8 0 -8 -4 1 -15 6 -8 9 -19 5 -25 -11 -17 -23 -11 -27
12 -2 18 -34 39 -39 26z m31 -34 c0 -16 -16 -19 -25 -4 -8 13 4 32 16 25 5 -4
9 -13 9 -21z"/>
<path d="M1785 1010 c-8 -26 11 -50 40 -50 29 0 48 24 40 50 -5 15 -15 20 -40
20 -25 0 -35 -5 -40 -20z m70 -9 c0 -8 -8 -19 -17 -25 -14 -8 -21 -7 -34 6 -9
9 -13 21 -9 28 10 15 60 8 60 -9z"/>
<path d="M957 983 c-14 -13 -7 -43 12 -53 11 -5 38 -10 61 -10 41 0 41 1 38
33 -3 30 -5 32 -43 32 -35 0 -40 -3 -39 -22 0 -14 -5 -23 -14 -23 -10 0 -12 7
-8 25 6 25 5 30 -7 18z m98 -23 c0 -18 -43 -26 -57 -12 -16 16 2 33 30 30 16
-2 27 -9 27 -18z"/>
<path d="M2602 949 c-17 -7 -22 -15 -20 -39 2 -30 2 -30 63 -29 33 1 51 4 40
7 -13 5 -20 16 -20 31 0 28 -30 42 -63 30z m55 -26 c2 -6 -4 -16 -15 -22 -23
-12 -59 9 -48 28 10 15 58 10 63 -6z"/>
<path d="M184 935 c-9 -21 3 -45 21 -45 8 0 20 12 26 27 7 19 13 23 21 15 8
-8 7 -16 -3 -28 -12 -15 -12 -17 1 -12 21 7 19 52 -2 56 -12 2 -21 -6 -28 -24
-8 -20 -14 -24 -22 -16 -8 8 -8 15 2 27 9 11 9 15 1 15 -6 0 -14 -7 -17 -15z"/>
<path d="M1806 931 c65 -16 74 -41 14 -41 -22 0 -40 -5 -40 -11 0 -6 17 -9 43
-7 40 3 42 5 43 36 1 32 1 32 -45 31 -42 -1 -43 -2 -15 -8z"/>
<path d="M989 898 c-1 -2 -3 -19 -4 -39 -2 -35 -2 -35 33 -30 19 3 39 13 45
22 12 19 3 49 -14 49 -8 0 -8 -4 1 -15 6 -8 9 -19 5 -25 -11 -17 -23 -11 -27
12 -2 18 -34 39 -39 26z m31 -34 c0 -16 -16 -19 -25 -4 -8 13 4 32 16 25 5 -4
9 -13 9 -21z"/>
<path d="M1802 849 c-17 -7 -22 -15 -20 -39 2 -30 2 -30 63 -29 33 1 51 4 40
7 -13 5 -20 16 -20 31 0 28 -30 42 -63 30z m55 -26 c2 -6 -4 -16 -15 -22 -23
-12 -59 9 -48 28 10 15 58 10 63 -6z"/>
<path d="M2585 840 c-6 -20 12 -56 23 -45 3 2 -1 11 -7 19 -7 8 -10 20 -6 26
12 20 25 10 25 -21 0 -23 4 -30 16 -27 27 5 40 34 25 52 -20 24 -68 21 -76 -4z
m68 -4 c3 -8 -1 -20 -9 -26 -12 -10 -14 -8 -14 14 0 28 14 35 23 12z"/>
<path d="M175 815 c-22 -11 -23 -13 -6 -9 12 3 38 6 56 6 18 0 44 -3 56 -6 17
-4 16 -2 -6 9 -16 8 -39 14 -50 14 -11 0 -33 -6 -50 -14z"/>
<path d="M984 795 c-9 -21 3 -45 21 -45 8 0 20 12 26 27 7 19 13 23 21 15 8
-8 7 -16 -3 -28 -12 -15 -12 -17 1 -12 21 7 19 52 -2 56 -12 2 -21 -6 -28 -24
-8 -20 -14 -24 -22 -16 -8 8 -8 15 2 27 9 11 9 15 1 15 -6 0 -14 -7 -17 -15z"/>
<path d="M2584 755 c-9 -21 3 -45 21 -45 8 0 20 12 26 27 7 19 13 23 21 15 8
-8 7 -16 -3 -28 -12 -15 -12 -17 1 -12 21 7 19 52 -2 56 -12 2 -21 -6 -28 -24
-8 -20 -14 -24 -22 -16 -8 8 -8 15 2 27 9 11 9 15 1 15 -6 0 -14 -7 -17 -15z"/>
<path d="M208 753 c17 -2 47 -2 65 0 17 2 3 4 -33 4 -36 0 -50 -2 -32 -4z"/>
<path d="M1787 753 c-2 -4 -4 -35 -3 -68 1 -48 4 -60 18 -63 12 -2 21 6 28 24
8 20 14 24 22 16 8 -8 7 -16 -3 -28 -12 -15 -12 -17 1 -12 21 7 19 52 -2 56
-12 2 -21 -6 -28 -24 -8 -20 -14 -24 -22 -16 -8 8 -8 15 1 26 9 11 9 15 -1 19
-7 3 1 6 18 6 17 1 37 8 44 16 15 18 10 47 -10 53 -13 4 -13 3 -2 -11 8 -9 11
-21 7 -27 -11 -17 -23 -11 -27 12 -3 22 -32 37 -41 21z m33 -29 c0 -16 -16
-19 -25 -4 -8 13 4 32 16 25 5 -4 9 -13 9 -21z"/>
<path d="M206 721 c65 -16 74 -41 14 -41 -22 0 -40 -5 -40 -11 0 -6 17 -9 43
-7 40 3 42 5 43 36 1 32 1 32 -45 31 -42 -1 -43 -2 -15 -8z"/>
<path d="M2585 670 c-6 -20 12 -56 23 -45 3 2 -1 11 -7 19 -7 8 -10 20 -6 26
12 20 25 10 25 -21 0 -23 4 -30 16 -27 27 5 40 34 25 52 -20 24 -68 21 -76 -4z
m68 -4 c3 -8 -1 -20 -9 -26 -12 -10 -14 -8 -14 14 0 28 14 35 23 12z"/>
<path d="M982 643 c6 -80 110 -80 116 0 l3 37 -61 0 -61 0 3 -37z m108 -1 c0
-25 -20 -42 -50 -42 -30 0 -50 17 -50 42 0 15 9 18 50 18 41 0 50 -3 50 -18z"/>
<path d="M203 633 c15 -2 37 -2 50 0 12 2 0 4 -28 4 -27 0 -38 -2 -22 -4z"/>
<path d="M184 586 c-8 -20 2 -46 17 -46 8 0 8 4 -1 15 -16 19 -4 35 25 35 30
0 41 -16 23 -37 -11 -14 -11 -15 2 -11 8 2 15 16 15 29 0 21 -5 24 -38 27 -26
2 -39 -1 -43 -12z"/>
<path d="M2608 593 c17 -2 47 -2 65 0 17 2 3 4 -33 4 -36 0 -50 -2 -32 -4z"/>
<path d="M985 550 c-6 -20 12 -56 23 -45 3 2 -1 11 -7 19 -7 8 -10 20 -6 26
12 20 25 10 25 -21 0 -23 4 -30 16 -27 27 5 40 34 25 52 -20 24 -68 21 -76 -4z
m68 -4 c3 -8 -1 -20 -9 -26 -12 -10 -14 -8 -14 14 0 28 14 35 23 12z"/>
<path d="M2608 563 c17 -2 47 -2 65 0 17 2 3 4 -33 4 -36 0 -50 -2 -32 -4z"/>
<path d="M2589 528 c-1 -2 -3 -19 -4 -39 -2 -35 -2 -35 33 -30 19 3 39 13 45
22 12 19 3 49 -14 49 -8 0 -8 -4 1 -15 6 -8 9 -19 5 -25 -11 -17 -23 -11 -27
12 -2 18 -34 39 -39 26z m31 -34 c0 -16 -16 -19 -25 -4 -8 13 4 32 16 25 5 -4
9 -13 9 -21z"/>
<path d="M203 513 c15 -2 37 -2 50 0 12 2 0 4 -28 4 -27 0 -38 -2 -22 -4z"/>
<path d="M185 470 c-8 -26 11 -50 40 -50 29 0 48 24 40 50 -9 29 -71 29 -80 0z
m70 -9 c0 -8 -8 -19 -17 -25 -14 -8 -21 -7 -34 6 -9 9 -13 21 -9 28 10 15 60
8 60 -9z"/>
<path d="M995 424 c-24 -24 -15 -66 18 -84 24 -13 30 -13 55 0 53 30 33 100
-28 100 -16 0 -36 -7 -45 -16z m79 -10 c19 -18 19 -20 6 -45 -14 -26 -66 -26
-80 0 -13 25 -13 27 6 45 20 20 48 20 68 0z"/>
<path d="M170 386 c32 -19 78 -19 110 0 l25 15 -25 -8 c-32 -10 -78 -10 -110
0 l-25 8 25 -15z"/>
<path d="M2575 385 c-22 -11 -23 -13 -6 -9 12 3 38 6 56 6 18 0 44 -3 56 -6
17 -4 16 -2 -6 9 -16 8 -39 14 -50 14 -11 0 -33 -6 -50 -14z"/>
<path d="M2580 340 c0 -5 13 -10 29 -10 25 0 30 -5 34 -27 l4 -28 2 28 c1 20
6 27 20 27 15 0 21 -8 24 -32 3 -29 4 -27 5 10 l2 42 -60 0 c-33 0 -60 -4 -60
-10z"/>
<path d="M1006 301 c65 -16 74 -41 14 -41 -22 0 -40 -5 -40 -11 0 -6 17 -9 43
-7 40 3 42 5 43 36 1 32 1 32 -45 31 -42 -1 -43 -2 -15 -8z"/>
<path d="M2603 243 c15 -2 37 -2 50 0 12 2 0 4 -28 4 -27 0 -38 -2 -22 -4z"/>
<path d="M1003 213 c15 -2 37 -2 50 0 12 2 0 4 -28 4 -27 0 -38 -2 -22 -4z"/>
<path d="M2606 201 c65 -16 74 -41 14 -41 -22 0 -40 -5 -40 -11 0 -6 17 -9 43
-7 40 3 42 5 43 36 1 32 1 32 -45 31 -42 -1 -43 -2 -15 -8z"/>
<path d="M987 183 c-11 -10 -8 -43 4 -43 5 0 7 5 4 10 -4 6 -1 17 5 25 12 15
0 22 -13 8z"/>
<path d="M1023 173 c-3 -10 -8 -21 -10 -25 -2 -5 0 -8 5 -8 5 0 12 9 15 21 3
12 10 18 17 14 6 -4 9 -13 6 -21 -3 -8 -1 -14 5 -14 6 0 9 10 7 22 -4 28 -36
36 -45 11z"/>
</g>
</svg>
