<?xml version="1.0" standalone="no"?>
<!DOCTYPE svg PUBLIC "-//W3C//DTD SVG 20010904//EN"
 "http://www.w3.org/TR/2001/REC-SVG-20010904/DTD/svg10.dtd">
<svg version="1.0" xmlns="http://www.w3.org/2000/svg"
 width="1024.000000pt" height="632.000000pt" viewBox="0 0 1024.000000 632.000000"
 preserveAspectRatio="xMidYMid meet">

<g transform="translate(0.000000,632.000000) scale(0.100000,-0.100000)"
fill="#000000" stroke="none">
<path d="M567 4322 l-397 -1657 0 -467 0 -468 1216 0 c969 0 1214 3 1208 12
-4 7 -182 270 -395 584 -213 314 -394 584 -401 600 -8 16 -192 710 -409 1541
-303 1163 -397 1513 -409 1513 -12 0 -103 -367 -413 -1658z m826 22 l374
-1431 392 -576 c215 -318 391 -579 391 -582 0 -3 -530 -4 -1177 -3 l-1178 3 0
455 0 455 388 1610 c213 886 390 1617 394 1625 3 9 13 -15 24 -55 10 -38 187
-714 392 -1501z"/>
<path d="M2530 1670 c0 -5 14 -10 31 -10 28 0 30 -2 27 -32 -2 -28 -8 -34 -30
-36 -16 -2 -28 -8 -28 -13 0 -11 40 -12 59 0 9 6 21 5 33 -2 30 -20 53 3 56
57 l3 46 -75 0 c-44 0 -76 -4 -76 -10z m128 -42 c-2 -25 -8 -33 -23 -33 -15 0
-21 8 -23 33 -3 29 -1 32 23 32 24 0 26 -3 23 -32z"/>
<path d="M1000 1640 c-35 -35 -17 -101 28 -99 14 0 13 3 -5 16 -25 17 -30 52
-11 71 7 7 26 12 43 12 17 0 36 -5 43 -12 17 -17 15 -57 -3 -64 -16 -7 -21
-24 -6 -24 18 0 41 32 41 56 0 35 -34 64 -75 64 -22 0 -43 -8 -55 -20z"/>
<path d="M1798 1643 c25 -18 32 -73 8 -73 -15 0 -31 -18 -23 -26 8 -9 147 48
147 60 0 7 -31 22 -68 34 -80 26 -96 27 -64 5z m97 -44 c-3 -4 -16 -9 -30 -11
-21 -4 -25 -1 -25 18 0 21 2 21 29 11 17 -6 28 -14 26 -18z"/>
<path d="M190 1611 c-30 -56 2 -91 83 -91 77 0 73 18 -5 22 -63 3 -63 3 -63
33 0 30 0 30 63 33 82 4 80 22 -3 22 -53 0 -66 -3 -75 -19z"/>
<path d="M2530 1530 c0 -5 25 -10 55 -10 30 0 55 5 55 10 0 6 -25 10 -55 10
-30 0 -55 -4 -55 -10z"/>
<path d="M2660 1530 c0 -5 5 -10 10 -10 6 0 10 5 10 10 0 6 -4 10 -10 10 -5 0
-10 -4 -10 -10z"/>
<path d="M987 1513 c-2 -4 -5 -27 -4 -51 0 -30 3 -40 11 -33 6 5 29 11 51 13
35 3 40 7 43 29 2 14 -4 31 -12 38 -13 11 -14 8 -9 -23 7 -46 -13 -49 -25 -3
-8 31 -43 50 -55 30z m41 -41 c2 -12 -1 -22 -7 -22 -13 0 -32 35 -24 44 12 12
28 0 31 -22z"/>
<path d="M1780 1510 c0 -5 18 -10 40 -10 27 0 43 -5 46 -15 9 -23 22 -18 22
10 0 24 -4 25 -54 25 -30 0 -54 -4 -54 -10z"/>
<path d="M180 1491 c0 -6 19 -11 43 -13 35 -2 43 -7 45 -25 3 -21 -1 -23 -42
-23 -25 0 -46 -4 -46 -10 0 -15 86 -12 98 3 6 7 10 27 10 45 -1 32 -1 32 -55
32 -29 0 -53 -4 -53 -9z"/>
<path d="M2532 1468 c-1 -42 13 -58 53 -58 38 0 60 21 52 50 -4 16 0 20 19 20
13 0 24 5 24 10 0 6 -31 10 -73 10 l-74 0 -1 -32z m86 -14 c3 -24 -20 -38 -49
-29 -19 6 -26 35 -12 49 15 15 58 1 61 -20z"/>
<path d="M1780 1450 c0 -5 18 -10 40 -10 27 0 43 -5 46 -15 9 -23 22 -18 22
10 0 24 -4 25 -54 25 -30 0 -54 -4 -54 -10z"/>
<path d="M980 1391 c0 -6 19 -11 43 -13 35 -2 43 -7 45 -25 3 -21 -1 -23 -42
-23 -25 0 -46 -4 -46 -10 0 -15 86 -12 98 3 6 7 10 27 10 45 -1 32 -1 32 -55
32 -29 0 -53 -4 -53 -9z"/>
<path d="M1780 1380 c0 -5 25 -10 55 -10 30 0 55 5 55 10 0 6 -25 10 -55 10
-30 0 -55 -4 -55 -10z"/>
<path d="M1910 1380 c0 -5 5 -10 10 -10 6 0 10 5 10 10 0 6 -4 10 -10 10 -5 0
-10 -4 -10 -10z"/>
<path d="M2537 1383 c-2 -4 -5 -27 -4 -51 0 -30 3 -40 11 -33 6 5 29 11 51 13
35 3 40 7 43 29 2 14 -4 31 -12 38 -13 11 -14 8 -9 -23 7 -46 -13 -49 -25 -3
-8 31 -43 50 -55 30z m41 -41 c2 -12 -1 -22 -7 -22 -13 0 -32 35 -24 44 12 12
28 0 31 -22z"/>
<path d="M190 1365 c-7 -8 -10 -24 -7 -35 4 -16 0 -20 -19 -20 -13 0 -24 -4
-24 -10 0 -6 31 -10 73 -10 l74 0 1 32 c0 18 -4 38 -10 45 -14 18 -73 16 -88
-2z m68 -4 c25 -15 10 -46 -23 -46 -21 0 -31 5 -33 19 -4 18 13 36 33 36 6 0
16 -4 23 -9z"/>
<path d="M1792 1328 c-7 -7 -12 -21 -12 -33 0 -28 18 -45 48 -45 36 0 62 18
62 43 0 31 -18 47 -55 47 -17 0 -36 -5 -43 -12z m76 -32 c-4 -31 -62 -30 -66
1 -2 14 3 23 15 25 33 7 54 -3 51 -26z"/>
<path d="M950 1275 c-7 -8 -10 -25 -6 -39 6 -25 37 -36 106 -36 35 0 37 2 38
32 1 42 -13 58 -53 58 -38 0 -59 -21 -50 -50 7 -23 -7 -27 -25 -5 -10 12 -10
18 0 30 7 9 11 18 8 20 -3 3 -11 -1 -18 -10z m118 -29 c-4 -31 -62 -30 -66 1
-2 14 3 23 15 25 33 7 54 -3 51 -26z"/>
<path d="M192 1257 c-6 -7 -10 -27 -10 -45 1 -32 1 -32 55 -32 63 0 72 17 11
22 -36 2 -44 7 -46 26 -3 20 1 22 42 22 25 0 46 5 46 10 0 15 -86 12 -98 -3z"/>
<path d="M2542 1257 c-6 -7 -10 -27 -10 -45 l1 -32 74 0 c42 0 73 4 73 10 0 6
-11 10 -24 10 -19 0 -23 4 -19 20 3 11 0 27 -7 35 -15 18 -74 20 -88 2z m66
-6 c25 -15 10 -46 -23 -46 -21 0 -31 5 -33 19 -4 18 13 36 33 36 6 0 16 -4 23
-9z"/>
<path d="M1780 1221 c0 -6 19 -11 43 -13 35 -2 43 -7 45 -25 3 -21 -1 -23 -42
-23 -25 0 -46 -4 -46 -10 0 -15 86 -12 98 3 6 7 10 27 10 45 -1 32 -1 32 -55
32 -29 0 -53 -4 -53 -9z"/>
<path d="M987 1173 c-2 -4 -5 -27 -4 -51 0 -30 3 -40 11 -33 6 5 29 11 51 13
35 3 40 7 43 29 2 14 -4 31 -12 38 -13 11 -14 8 -9 -23 7 -46 -13 -49 -25 -3
-8 31 -43 50 -55 30z m41 -41 c2 -12 -1 -22 -7 -22 -13 0 -32 35 -24 44 12 12
28 0 31 -22z"/>
<path d="M192 1148 c-23 -23 -8 -78 22 -78 6 0 5 5 -2 12 -17 17 -15 58 3 58
10 0 15 -11 15 -35 0 -27 4 -35 18 -35 39 0 55 45 26 74 -18 19 -65 21 -82 4z
m78 -33 c0 -16 -6 -25 -15 -25 -9 0 -15 9 -15 25 0 16 6 25 15 25 9 0 15 -9
15 -25z"/>
<path d="M2542 1148 c-23 -23 -8 -78 22 -78 6 0 5 5 -2 12 -17 17 -15 58 3 58
10 0 15 -11 15 -35 0 -27 4 -35 18 -35 39 0 55 45 26 74 -18 19 -65 21 -82 4z
m78 -33 c0 -16 -6 -25 -15 -25 -9 0 -15 9 -15 25 0 16 6 25 15 25 9 0 15 -9
15 -25z"/>
<path d="M1792 1107 c-6 -7 -10 -27 -10 -45 l1 -32 74 0 c42 0 73 4 73 10 0 6
-11 10 -24 10 -19 0 -23 4 -19 20 3 11 0 27 -7 35 -15 18 -74 20 -88 2z m66
-6 c25 -15 10 -46 -23 -46 -21 0 -31 5 -33 19 -4 18 13 36 33 36 6 0 16 -4 23
-9z"/>
<path d="M984 1055 c-4 -8 -3 -26 0 -40 9 -36 44 -33 57 5 14 40 33 39 25 -1
-5 -27 -4 -30 9 -19 18 15 19 42 3 58 -20 20 -35 14 -47 -18 -5 -16 -15 -30
-20 -30 -15 0 -14 33 1 48 9 9 8 12 -5 12 -10 0 -20 -7 -23 -15z"/>
<path d="M180 1040 c0 -5 18 -10 40 -10 27 0 43 -5 46 -15 9 -23 22 -18 22 10
0 24 -4 25 -54 25 -30 0 -54 -4 -54 -10z"/>
<path d="M2534 1035 c-4 -8 -3 -26 0 -40 9 -36 44 -33 57 5 14 40 33 39 25 -1
-5 -27 -4 -30 9 -19 18 15 19 42 3 58 -20 20 -35 14 -47 -18 -5 -16 -15 -30
-20 -30 -15 0 -14 33 1 48 9 9 8 12 -5 12 -10 0 -20 -7 -23 -15z"/>
<path d="M1787 1003 c-2 -4 -5 -27 -4 -51 0 -30 3 -40 11 -33 6 5 29 11 51 13
35 3 40 7 43 29 2 14 -4 31 -12 38 -13 11 -14 8 -9 -23 7 -46 -13 -49 -25 -3
-8 31 -43 50 -55 30z m41 -41 c2 -12 -1 -22 -7 -22 -13 0 -32 35 -24 44 12 12
28 0 31 -22z"/>
<path d="M187 973 c-2 -4 -5 -27 -4 -51 0 -30 3 -40 11 -33 6 5 29 11 51 13
35 3 40 7 43 29 2 14 -4 31 -12 38 -13 11 -14 8 -9 -23 7 -46 -13 -49 -25 -3
-8 31 -43 50 -55 30z m41 -41 c2 -12 -1 -22 -7 -22 -13 0 -32 35 -24 44 12 12
28 0 31 -22z"/>
<path d="M2542 938 c-23 -23 -8 -78 22 -78 6 0 5 5 -2 12 -17 17 -15 58 3 58
10 0 15 -11 15 -35 0 -27 4 -35 18 -35 39 0 55 45 26 74 -18 19 -65 21 -82 4z
m78 -33 c0 -16 -6 -25 -15 -25 -9 0 -15 9 -15 25 0 16 6 25 15 25 9 0 15 -9
15 -25z"/>
<path d="M980 872 c0 -50 24 -72 77 -72 50 0 73 23 73 73 l0 37 -75 0 -75 0 0
-38z m128 -14 c-3 -32 -4 -33 -53 -33 -49 0 -50 1 -53 33 l-3 32 56 0 56 0 -3
-32z"/>
<path d="M1784 885 c-4 -8 -3 -26 0 -40 9 -36 44 -33 57 5 14 40 33 39 25 -1
-5 -27 -4 -30 9 -19 18 15 19 42 3 58 -20 20 -35 14 -47 -18 -5 -16 -15 -30
-20 -30 -15 0 -14 33 1 48 9 9 8 12 -5 12 -10 0 -20 -7 -23 -15z"/>
<path d="M2530 830 c0 -6 32 -10 75 -10 43 0 75 4 75 10 0 6 -32 10 -75 10
-43 0 -75 -4 -75 -10z"/>
<path d="M202 809 c-19 -4 -39 -12 -45 -19 -10 -10 -8 -11 8 -5 44 16 92 17
128 2 20 -9 37 -12 37 -8 0 20 -84 40 -128 30z"/>
<path d="M2530 790 c0 -6 32 -10 75 -10 43 0 75 4 75 10 0 6 -32 10 -75 10
-43 0 -75 -4 -75 -10z"/>
<path d="M992 758 c-23 -23 -8 -78 22 -78 6 0 5 5 -2 12 -17 17 -15 58 3 58
10 0 15 -11 15 -35 0 -27 4 -35 18 -35 39 0 55 45 26 74 -18 19 -65 21 -82 4z
m78 -33 c0 -16 -6 -25 -15 -25 -9 0 -15 9 -15 25 0 16 6 25 15 25 9 0 15 -9
15 -25z"/>
<path d="M2537 743 c-2 -4 -5 -27 -4 -51 0 -30 3 -40 11 -33 6 5 29 11 51 13
35 3 40 7 43 29 2 14 -4 31 -12 38 -13 11 -14 8 -9 -23 7 -46 -13 -49 -25 -3
-8 31 -43 50 -55 30z m41 -41 c2 -12 -1 -22 -7 -22 -13 0 -32 35 -24 44 12 12
28 0 31 -22z"/>
<path d="M180 730 c0 -6 32 -10 75 -10 43 0 75 4 75 10 0 6 -32 10 -75 10 -43
0 -75 -4 -75 -10z"/>
<path d="M180 691 c0 -6 19 -11 43 -13 35 -2 43 -7 45 -25 3 -21 -1 -23 -42
-23 -25 0 -46 -4 -46 -10 0 -15 86 -12 98 3 6 7 10 27 10 45 -1 32 -1 32 -55
32 -29 0 -53 -4 -53 -9z"/>
<path d="M1000 590 c-11 -11 -20 -31 -20 -45 0 -33 42 -75 75 -75 33 0 75 42
75 75 0 36 -33 65 -75 65 -22 0 -43 -8 -55 -20z m99 -14 c7 -8 11 -27 9 -43
-7 -59 -108 -55 -108 5 0 15 5 33 12 40 17 17 73 15 87 -2z"/>
<path d="M180 580 c0 -5 25 -10 55 -10 30 0 55 5 55 10 0 6 -25 10 -55 10 -30
0 -55 -4 -55 -10z"/>
<path d="M310 580 c0 -5 5 -10 10 -10 6 0 10 5 10 10 0 6 -4 10 -10 10 -5 0
-10 -4 -10 -10z"/>
<path d="M2552 579 c-19 -4 -39 -12 -45 -19 -10 -10 -8 -11 8 -5 44 16 92 17
128 2 20 -9 37 -12 37 -8 0 20 -84 40 -128 30z"/>
<path d="M190 525 c-16 -20 -4 -65 17 -65 13 0 14 3 5 12 -29 29 -2 66 39 53
21 -7 25 -35 7 -53 -9 -9 -8 -12 5 -12 21 0 33 45 17 65 -7 8 -27 15 -45 15
-18 0 -38 -7 -45 -15z"/>
<path d="M2530 500 c0 -5 16 -10 35 -10 33 0 35 -2 35 -36 0 -21 4 -33 10 -29
6 3 10 19 10 36 0 22 5 29 20 29 16 0 20 -7 20 -34 0 -19 5 -38 10 -41 6 -4
10 13 10 44 l0 51 -75 0 c-43 0 -75 -4 -75 -10z"/>
<path d="M980 441 c0 -6 19 -11 43 -13 35 -2 43 -7 45 -25 3 -21 -1 -23 -42
-23 -25 0 -46 -4 -46 -10 0 -15 86 -12 98 3 6 7 10 27 10 45 -1 32 -1 32 -55
32 -29 0 -53 -4 -53 -9z"/>
<path d="M180 430 c0 -5 25 -10 55 -10 30 0 55 5 55 10 0 6 -25 10 -55 10 -30
0 -55 -4 -55 -10z"/>
<path d="M310 430 c0 -5 5 -10 10 -10 6 0 10 5 10 10 0 6 -4 10 -10 10 -5 0
-10 -4 -10 -10z"/>
<path d="M192 388 c-15 -15 -15 -51 0 -66 28 -28 98 -6 98 31 0 31 -18 47 -55
47 -17 0 -36 -5 -43 -12z m76 -32 c-4 -31 -62 -30 -66 1 -2 14 3 23 15 25 33
7 54 -3 51 -26z"/>
<path d="M2530 390 c0 -5 25 -10 55 -10 30 0 55 5 55 10 0 6 -25 10 -55 10
-30 0 -55 -4 -55 -10z"/>
<path d="M2660 390 c0 -5 5 -10 10 -10 6 0 10 5 10 10 0 6 -4 10 -10 10 -5 0
-10 -4 -10 -10z"/>
<path d="M2530 341 c0 -6 19 -11 43 -13 35 -2 43 -7 45 -25 3 -21 -1 -23 -42
-23 -25 0 -46 -4 -46 -10 0 -15 86 -12 98 3 6 7 10 27 10 45 -1 32 -1 32 -55
32 -29 0 -53 -4 -53 -9z"/>
<path d="M980 330 c0 -5 25 -10 55 -10 30 0 55 5 55 10 0 6 -25 10 -55 10 -30
0 -55 -4 -55 -10z"/>
<path d="M1110 330 c0 -5 5 -10 10 -10 6 0 10 5 10 10 0 6 -4 10 -10 10 -5 0
-10 -4 -10 -10z"/>
<path d="M154 276 c11 -9 35 -19 54 -22 35 -7 107 9 117 26 3 5 -8 5 -25 -1
-31 -11 -110 -8 -145 5 -20 7 -20 7 -1 -8z"/>
<path d="M984 275 c-4 -8 -3 -26 0 -40 9 -36 44 -33 57 5 14 40 33 39 25 -1
-5 -27 -4 -30 9 -19 18 15 19 42 3 58 -20 20 -35 14 -47 -18 -5 -16 -15 -30
-20 -30 -15 0 -14 33 1 48 9 9 8 12 -5 12 -10 0 -20 -7 -23 -15z"/>
<path d="M2504 226 c11 -9 35 -19 54 -22 35 -7 107 9 117 26 3 5 -8 5 -25 -1
-31 -11 -110 -8 -145 5 -20 7 -20 7 -1 -8z"/>
</g>
</svg>
