<?xml version="1.0" standalone="no"?>
<!DOCTYPE svg PUBLIC "-//W3C//DTD SVG 20010904//EN"
 "http://www.w3.org/TR/2001/REC-SVG-20010904/DTD/svg10.dtd">
<svg version="1.0" xmlns="http://www.w3.org/2000/svg"
 width="1024.000000pt" height="632.000000pt" viewBox="0 0 1024.000000 632.000000"
 preserveAspectRatio="xMidYMid meet">

<g transform="translate(0.000000,632.000000) scale(0.100000,-0.100000)"
fill="#000000" stroke="none">
<path d="M972 5993 c-5 -10 -188 -435 -406 -945 l-396 -927 0 -1195 0 -1196
1216 0 c969 0 1214 3 1208 12 -4 7 -183 271 -397 587 -213 315 -395 587 -402
605 -8 17 -193 715 -411 1551 -218 836 -398 1522 -399 1523 -2 2 -8 -5 -13
-15z m402 -1575 l393 -1505 392 -576 c215 -318 391 -579 391 -582 0 -3 -530
-4 -1177 -3 l-1178 3 0 1180 0 1180 389 908 c214 499 391 905 393 903 2 -2
181 -681 397 -1508z"/>
<path d="M1780 1680 c0 -5 9 -12 20 -15 28 -9 27 -51 -2 -58 -12 -4 -19 -9
-16 -12 9 -10 118 27 118 39 0 6 -27 21 -60 33 -33 12 -60 18 -60 13z m90 -40
c9 -6 10 -10 3 -10 -6 0 -18 -3 -27 -6 -11 -4 -16 -1 -16 10 0 18 17 21 40 6z"/>
<path d="M192 1668 c-25 -25 -8 -78 26 -78 7 0 20 16 28 35 15 38 31 45 41 19
4 -11 -1 -22 -13 -31 -19 -14 -19 -15 1 -11 25 4 32 50 11 67 -22 19 -43 7
-51 -28 -4 -17 -13 -31 -21 -31 -23 0 -28 29 -9 50 19 21 7 28 -13 8z"/>
<path d="M996 1664 c-21 -20 -20 -48 0 -69 22 -22 32 -10 11 13 -10 10 -17 21
-17 25 0 13 32 37 50 37 19 0 50 -25 50 -40 0 -5 -7 -16 -16 -24 -13 -14 -13
-16 -1 -16 15 0 27 20 27 45 0 23 -30 45 -60 45 -16 0 -36 -7 -44 -16z"/>
<path d="M2530 1670 c0 -5 12 -10 26 -10 22 0 25 -4 22 -27 -2 -20 -9 -29 -25
-31 -13 -2 -23 -7 -23 -12 0 -5 7 -7 15 -4 8 4 34 7 57 8 l43 1 3 43 3 42 -60
0 c-34 0 -61 -4 -61 -10z m108 -37 c-2 -20 -9 -28 -23 -28 -14 0 -21 8 -23 28
-3 23 0 27 23 27 23 0 26 -4 23 -27z"/>
<path d="M185 1550 c-8 -26 11 -50 40 -50 29 0 48 24 40 50 -5 15 -15 20 -40
20 -25 0 -35 -5 -40 -20z m70 -9 c0 -8 -8 -19 -17 -25 -14 -8 -21 -7 -34 6 -9
9 -13 21 -9 28 10 15 60 8 60 -9z"/>
<path d="M1807 1560 c18 -4 39 -13 47 -19 12 -10 15 -9 13 8 -1 18 -8 21 -47
20 -43 -1 -44 -1 -13 -9z"/>
<path d="M989 1558 c-1 -2 -3 -22 -4 -45 -3 -37 0 -43 17 -43 24 0 58 -18 58
-30 0 -6 -18 -10 -40 -10 -22 0 -40 -5 -40 -11 0 -6 17 -9 43 -7 40 3 42 5 43
36 1 31 0 32 -40 33 l-41 2 34 6 c19 3 38 13 44 22 12 19 3 49 -14 49 -8 0 -8
-4 1 -15 6 -8 9 -19 5 -25 -11 -17 -23 -11 -27 12 -2 18 -34 39 -39 26z m31
-34 c0 -16 -16 -19 -25 -4 -8 13 4 32 16 25 5 -4 9 -13 9 -21z"/>
<path d="M2553 1553 c15 -2 37 -2 50 0 12 2 0 4 -28 4 -27 0 -38 -2 -22 -4z"/>
<path d="M2533 1508 c-3 -31 15 -48 48 -48 28 0 48 28 34 49 -3 5 5 12 17 14
13 2 -4 5 -37 6 -56 1 -61 -1 -62 -21z m65 0 c13 -13 -2 -38 -23 -38 -21 0
-36 25 -23 38 7 7 17 12 23 12 6 0 16 -5 23 -12z"/>
<path d="M1807 1510 c18 -4 39 -13 47 -19 12 -10 15 -9 13 8 -1 18 -8 21 -47
20 -43 -1 -44 -1 -13 -9z"/>
<path d="M226 1480 c-57 -7 -56 -25 1 -23 65 2 63 2 63 12 0 14 -21 17 -64 11z"/>
<path d="M1803 1463 c15 -2 37 -2 50 0 12 2 0 4 -28 4 -27 0 -38 -2 -22 -4z"/>
<path d="M185 1420 c-8 -26 11 -50 40 -50 29 0 48 24 40 50 -5 15 -15 20 -40
20 -25 0 -35 -5 -40 -20z m70 -9 c0 -8 -8 -19 -17 -25 -14 -8 -21 -7 -34 6 -9
9 -13 21 -9 28 10 15 60 8 60 -9z"/>
<path d="M2539 1438 c-1 -2 -3 -19 -4 -39 -2 -35 -2 -35 33 -30 19 3 39 13 45
22 12 19 3 49 -14 49 -8 0 -8 -4 1 -15 6 -8 9 -19 5 -25 -11 -17 -23 -11 -27
12 -2 18 -34 39 -39 26z m31 -34 c0 -16 -16 -19 -25 -4 -8 13 4 32 16 25 5 -4
9 -13 9 -21z"/>
<path d="M1785 1410 c-8 -26 11 -50 40 -50 29 0 48 24 40 50 -5 15 -15 20 -40
20 -25 0 -35 -5 -40 -20z m70 -9 c0 -8 -8 -19 -17 -25 -14 -8 -21 -7 -34 6 -9
9 -13 21 -9 28 10 15 60 8 60 -9z"/>
<path d="M957 1383 c-14 -13 -7 -43 12 -53 11 -5 38 -10 61 -10 41 0 41 1 38
33 -3 30 -5 32 -43 32 -35 0 -40 -3 -39 -22 0 -14 -5 -23 -14 -23 -10 0 -12 7
-8 25 6 25 5 30 -7 18z m98 -23 c0 -18 -43 -26 -57 -12 -16 16 2 33 30 30 16
-2 27 -9 27 -18z"/>
<path d="M2552 1349 c-17 -7 -22 -15 -20 -39 2 -30 2 -30 63 -29 33 1 51 4 40
7 -13 5 -20 16 -20 31 0 28 -30 42 -63 30z m55 -26 c2 -6 -4 -16 -15 -22 -23
-12 -59 9 -48 28 10 15 58 10 63 -6z"/>
<path d="M1806 1331 c65 -16 74 -41 14 -41 -22 0 -40 -5 -40 -11 0 -6 17 -9
43 -7 40 3 42 5 43 36 1 32 1 32 -45 31 -42 -1 -43 -2 -15 -8z"/>
<path d="M202 1309 c-17 -7 -22 -15 -20 -39 2 -30 2 -30 63 -29 33 1 51 4 40
7 -13 5 -20 16 -20 31 0 28 -30 42 -63 30z m55 -26 c2 -6 -4 -16 -15 -22 -23
-12 -59 9 -48 28 10 15 58 10 63 -6z"/>
<path d="M989 1298 c-1 -2 -3 -19 -4 -39 -2 -35 -2 -35 33 -30 19 3 39 13 45
22 12 19 3 49 -14 49 -8 0 -8 -4 1 -15 6 -8 9 -19 5 -25 -11 -17 -23 -11 -27
12 -2 18 -34 39 -39 26z m31 -34 c0 -16 -16 -19 -25 -4 -8 13 4 32 16 25 5 -4
9 -13 9 -21z"/>
<path d="M1802 1249 c-17 -7 -22 -15 -20 -39 2 -30 2 -30 63 -29 33 1 51 4 40
7 -13 5 -20 16 -20 31 0 28 -30 42 -63 30z m55 -26 c2 -6 -4 -16 -15 -22 -23
-12 -59 9 -48 28 10 15 58 10 63 -6z"/>
<path d="M2535 1240 c-6 -20 12 -56 23 -45 3 2 -1 11 -7 19 -7 8 -10 20 -6 26
12 20 25 10 25 -21 0 -23 4 -30 16 -27 27 5 40 34 25 52 -20 24 -68 21 -76 -4z
m68 -4 c3 -8 -1 -20 -9 -26 -12 -10 -14 -8 -14 14 0 28 14 35 23 12z"/>
<path d="M185 1200 c-6 -20 12 -56 23 -45 3 2 -1 11 -7 19 -7 8 -10 20 -6 26
12 20 25 10 25 -21 0 -23 4 -30 16 -27 27 5 40 34 25 52 -20 24 -68 21 -76 -4z
m68 -4 c3 -8 -1 -20 -9 -26 -12 -10 -14 -8 -14 14 0 28 14 35 23 12z"/>
<path d="M984 1195 c-9 -21 3 -45 21 -45 8 0 20 12 26 27 7 19 13 23 21 15 8
-8 7 -16 -3 -28 -12 -15 -12 -17 1 -12 21 7 19 52 -2 56 -12 2 -21 -6 -28 -24
-8 -20 -14 -24 -22 -16 -8 8 -8 15 2 27 9 11 9 15 1 15 -6 0 -14 -7 -17 -15z"/>
<path d="M2534 1155 c-9 -21 3 -45 21 -45 8 0 20 12 26 27 7 19 13 23 21 15 8
-8 7 -16 -3 -28 -12 -15 -12 -17 1 -12 21 7 19 52 -2 56 -12 2 -21 -6 -28 -24
-8 -20 -14 -24 -22 -16 -8 8 -8 15 2 27 9 11 9 15 1 15 -6 0 -14 -7 -17 -15z"/>
<path d="M1787 1153 c-2 -4 -4 -35 -3 -68 1 -48 4 -60 18 -63 12 -2 21 6 28
24 8 20 14 24 22 16 8 -8 7 -16 -3 -28 -12 -15 -12 -17 1 -12 21 7 19 52 -2
56 -12 2 -21 -6 -28 -24 -8 -20 -14 -24 -22 -16 -8 8 -8 15 1 26 9 11 9 15 -1
19 -7 3 1 6 18 6 17 1 37 8 44 16 15 18 10 47 -10 53 -13 4 -13 3 -2 -11 8 -9
11 -21 7 -27 -11 -17 -23 -11 -27 12 -3 22 -32 37 -41 21z m33 -29 c0 -16 -16
-19 -25 -4 -8 13 4 32 16 25 5 -4 9 -13 9 -21z"/>
<path d="M2535 1070 c-6 -20 12 -56 23 -45 3 2 -1 11 -7 19 -7 8 -10 20 -6 26
12 20 25 10 25 -21 0 -23 4 -30 16 -27 27 5 40 34 25 52 -20 24 -68 21 -76 -4z
m68 -4 c3 -8 -1 -20 -9 -26 -12 -10 -14 -8 -14 14 0 28 14 35 23 12z"/>
<path d="M184 1066 c-8 -20 2 -46 17 -46 8 0 8 4 -1 15 -16 19 -4 35 25 35 30
0 41 -16 23 -37 -11 -14 -11 -15 2 -11 8 2 15 16 15 29 0 21 -5 24 -38 27 -26
2 -39 -1 -43 -12z"/>
<path d="M982 1043 c6 -80 110 -80 116 0 l3 37 -61 0 -61 0 3 -37z m108 -1 c0
-25 -20 -42 -50 -42 -30 0 -50 17 -50 42 0 15 9 18 50 18 41 0 50 -3 50 -18z"/>
<path d="M189 998 c-1 -2 -3 -22 -4 -45 -3 -37 0 -43 17 -43 24 0 58 -18 58
-30 0 -6 -18 -10 -40 -10 -22 0 -40 -5 -40 -11 0 -6 17 -9 43 -7 40 3 42 5 43
36 1 31 0 32 -40 33 l-41 2 34 6 c19 3 38 13 44 22 12 19 3 49 -14 49 -8 0 -8
-4 1 -15 6 -8 9 -19 5 -25 -11 -17 -23 -11 -27 12 -2 18 -34 39 -39 26z m31
-34 c0 -16 -16 -19 -25 -4 -8 13 4 32 16 25 5 -4 9 -13 9 -21z"/>
<path d="M2558 993 c17 -2 47 -2 65 0 17 2 3 4 -33 4 -36 0 -50 -2 -32 -4z"/>
<path d="M985 950 c-6 -20 12 -56 23 -45 3 2 -1 11 -7 19 -7 8 -10 20 -6 26
12 20 25 10 25 -21 0 -23 4 -30 16 -27 27 5 40 34 25 52 -20 24 -68 21 -76 -4z
m68 -4 c3 -8 -1 -20 -9 -26 -12 -10 -14 -8 -14 14 0 28 14 35 23 12z"/>
<path d="M2558 963 c17 -2 47 -2 65 0 17 2 3 4 -33 4 -36 0 -50 -2 -32 -4z"/>
<path d="M2539 928 c-1 -2 -3 -19 -4 -39 -2 -35 -2 -35 33 -30 19 3 39 13 45
22 12 19 3 49 -14 49 -8 0 -8 -4 1 -15 6 -8 9 -19 5 -25 -11 -17 -23 -11 -27
12 -2 18 -34 39 -39 26z m31 -34 c0 -16 -16 -19 -25 -4 -8 13 4 32 16 25 5 -4
9 -13 9 -21z"/>
<path d="M995 824 c-24 -24 -15 -66 18 -84 24 -13 30 -13 55 0 53 30 33 100
-28 100 -16 0 -36 -7 -45 -16z m79 -10 c19 -18 19 -20 6 -45 -20 -36 -90 -17
-90 25 0 12 33 36 50 36 10 0 26 -7 34 -16z"/>
<path d="M157 823 c-14 -13 -7 -43 12 -53 11 -5 38 -10 61 -10 41 0 41 1 38
33 -3 30 -5 32 -43 32 -35 0 -40 -3 -39 -22 0 -14 -5 -23 -14 -23 -10 0 -12 7
-8 25 6 25 5 30 -7 18z m98 -23 c0 -18 -43 -26 -57 -12 -16 16 2 33 30 30 16
-2 27 -9 27 -18z"/>
<path d="M2525 785 c-22 -11 -23 -13 -6 -9 12 3 38 6 56 6 18 0 44 -3 56 -6
17 -4 16 -2 -6 9 -16 8 -39 14 -50 14 -11 0 -33 -6 -50 -14z"/>
<path d="M2530 740 c0 -5 13 -10 29 -10 25 0 30 -5 34 -27 l4 -28 2 28 c1 20
6 27 20 27 15 0 21 -8 24 -32 3 -29 4 -27 5 10 l2 42 -60 0 c-33 0 -60 -4 -60
-10z"/>
<path d="M189 738 c-1 -2 -3 -19 -4 -39 -2 -35 -2 -35 33 -30 19 3 39 13 45
22 12 19 3 49 -14 49 -8 0 -8 -4 1 -15 6 -8 9 -19 5 -25 -11 -17 -23 -11 -27
12 -2 18 -34 39 -39 26z m31 -34 c0 -16 -16 -19 -25 -4 -8 13 4 32 16 25 5 -4
9 -13 9 -21z"/>
<path d="M1006 701 c65 -16 74 -41 14 -41 -22 0 -40 -5 -40 -11 0 -6 17 -9 43
-7 40 3 42 5 43 36 1 32 1 32 -45 31 -42 -1 -43 -2 -15 -8z"/>
<path d="M184 635 c-9 -21 3 -45 21 -45 8 0 20 12 26 27 7 19 13 23 21 15 8
-8 7 -16 -3 -28 -12 -15 -12 -17 1 -12 21 7 19 52 -2 56 -12 2 -21 -6 -28 -24
-8 -20 -14 -24 -22 -16 -8 8 -8 15 2 27 9 11 9 15 1 15 -6 0 -14 -7 -17 -15z"/>
<path d="M2553 643 c15 -2 37 -2 50 0 12 2 0 4 -28 4 -27 0 -38 -2 -22 -4z"/>
<path d="M1003 613 c15 -2 37 -2 50 0 12 2 0 4 -28 4 -27 0 -38 -2 -22 -4z"/>
<path d="M2556 601 c65 -16 74 -41 14 -41 -22 0 -40 -5 -40 -11 0 -6 17 -9 43
-7 40 3 42 5 43 36 1 32 1 32 -45 31 -42 -1 -43 -2 -15 -8z"/>
<path d="M984 575 c-9 -21 3 -45 21 -45 8 0 20 12 26 27 7 19 13 23 21 15 8
-8 7 -16 -3 -28 -12 -15 -12 -17 1 -12 21 7 19 52 -2 56 -12 2 -21 -6 -28 -24
-8 -20 -14 -24 -22 -16 -8 8 -8 15 2 27 9 11 9 15 1 15 -6 0 -14 -7 -17 -15z"/>
<path d="M2520 516 c32 -19 78 -19 110 0 l25 15 -25 -8 c-32 -10 -78 -10 -110
0 l-25 8 25 -15z"/>
<path d="M175 505 c-22 -11 -23 -13 -6 -9 12 3 38 6 56 6 18 0 44 -3 56 -6 17
-4 16 -2 -6 9 -16 8 -39 14 -50 14 -11 0 -33 -6 -50 -14z"/>
<path d="M208 453 c17 -2 47 -2 65 0 17 2 3 4 -33 4 -36 0 -50 -2 -32 -4z"/>
<path d="M206 421 c65 -16 74 -41 14 -41 -22 0 -40 -5 -40 -11 0 -6 17 -9 43
-7 40 3 42 5 43 36 1 32 1 32 -45 31 -42 -1 -43 -2 -15 -8z"/>
<path d="M203 333 c15 -2 37 -2 50 0 12 2 0 4 -28 4 -27 0 -38 -2 -22 -4z"/>
<path d="M184 286 c-8 -20 2 -46 17 -46 8 0 8 4 -1 15 -16 19 -4 35 25 35 30
0 41 -16 23 -37 -11 -14 -11 -15 2 -11 8 2 15 16 15 29 0 21 -5 24 -38 27 -26
2 -39 -1 -43 -12z"/>
<path d="M203 213 c15 -2 37 -2 50 0 12 2 0 4 -28 4 -27 0 -38 -2 -22 -4z"/>
<path d="M186 174 c-8 -22 -7 -34 3 -34 5 0 8 8 7 18 -1 13 7 17 29 17 22 0
30 -4 29 -17 -1 -10 2 -18 7 -18 10 0 11 12 3 34 -4 10 -18 16 -39 16 -21 0
-35 -6 -39 -16z"/>
</g>
</svg>
